<?xml version="1.0" encoding="UTF-8" standalone="no"?>
<!DOCTYPE svg PUBLIC "-//W3C//DTD SVG 1.1//EN" "http://www.w3.org/Graphics/SVG/1.1/DTD/svg11.dtd">
<svg width="100%" height="100%" viewBox="0 0 104 107" version="1.1" xmlns="http://www.w3.org/2000/svg" xmlns:xlink="http://www.w3.org/1999/xlink" xml:space="preserve" xmlns:serif="http://www.serif.com/" style="fill-rule:evenodd;clip-rule:evenodd;stroke-linejoin:round;stroke-miterlimit:2;">
    <g id="Layer" transform="matrix(0.841314,0,0,0.841314,8.21139,8.48972)">
        <g>
            <path d="M39.292,31.866C36.836,31.866 34.38,31.223 32.217,29.937L26.078,26.37L27.832,23.33L33.971,26.896C37.304,28.826 41.397,28.826 44.671,26.896C47.945,24.967 49.933,21.459 49.933,17.716C49.933,13.916 47.887,10.408 44.613,8.537L38.415,4.97L40.169,1.93L46.367,5.496C50.694,8.01 53.442,12.688 53.442,17.716C53.442,22.686 50.752,27.364 46.484,29.878C44.262,31.223 41.748,31.866 39.292,31.866Z" style="fill:rgb(128,117,240);fill-rule:nonzero;"/>
            <path d="M15.436,62.212L13.682,59.172L19.88,55.605C23.154,53.734 25.142,50.167 25.142,46.425L25.142,46.25C25.142,42.508 23.096,39.058 19.88,37.129L19.821,37.07C15.495,34.556 12.805,29.878 12.805,24.908C12.805,19.88 15.495,15.202 19.821,12.688C24.148,10.174 29.586,10.174 33.971,12.688L40.169,16.255L38.415,19.295L32.217,15.729C28.943,13.857 24.85,13.857 21.634,15.729C18.36,17.6 16.372,21.108 16.372,24.908C16.372,28.709 18.418,32.158 21.634,34.088L21.692,34.147C26.019,36.661 28.65,41.28 28.709,46.25L28.709,46.425C28.709,51.454 26.019,56.132 21.692,58.704L15.436,62.212Z" style="fill:rgb(101,61,225);fill-rule:nonzero;"/>
            <path d="M26.896,96.242C24.441,96.242 22.043,95.599 19.821,94.371C15.495,91.857 12.805,87.238 12.805,82.209L12.805,82.034C12.805,77.064 15.495,72.386 19.763,69.93L25.961,66.305L27.715,69.346L21.517,72.971C18.301,74.842 16.313,78.35 16.313,82.092L16.313,82.268C16.313,86.01 18.301,89.518 21.575,91.389C24.85,93.318 28.943,93.26 32.217,91.389L38.415,87.764L40.169,90.804L33.971,94.429C31.808,95.599 29.352,96.242 26.896,96.242Z" style="fill:rgb(101,61,225);fill-rule:nonzero;"/>
            <path d="M40.169,104.954L38.415,101.914L44.613,98.347C47.887,96.476 49.875,92.968 49.875,89.167C49.875,85.367 47.829,81.858 44.554,79.987C41.28,78.116 37.245,78.116 33.971,79.987L27.773,83.554L26.019,80.514L32.217,76.947C36.544,74.433 41.923,74.433 46.25,76.888C50.635,79.403 53.383,84.08 53.383,89.109C53.383,94.137 50.694,98.815 46.367,101.329L40.169,104.954Z" style="fill:rgb(101,61,225);fill-rule:nonzero;"/>
            <path d="M14.559,74.784C12.103,74.784 9.706,74.14 7.484,72.912C3.157,70.398 0.468,65.721 0.468,60.692C0.468,55.605 3.157,50.928 7.484,48.472L13.682,44.905L15.436,47.945L9.238,51.454C5.964,53.325 3.976,56.833 3.976,60.634C3.976,64.434 6.022,67.943 9.238,69.872C12.513,71.743 16.606,71.743 19.88,69.872L25.201,66.773L26.955,69.814L21.634,72.912C19.471,74.14 17.015,74.784 14.559,74.784Z" style="fill:rgb(101,61,225);fill-rule:nonzero;"/>
            <path d="M26.019,40.695L19.938,37.129C16.606,35.199 12.513,35.199 9.238,37.129L4.853,39.526L3.157,36.427L7.543,34.03C11.928,31.515 17.366,31.515 21.751,34.088L27.832,37.655L26.019,40.695Z" style="fill:rgb(101,61,225);fill-rule:nonzero;"/>
            <path d="M41.338,46.367L37.245,46.367L37.245,37.07C37.245,34.731 36.018,32.568 33.971,31.398L26.838,27.247L28.884,23.739L36.018,27.89C39.292,29.761 41.28,33.328 41.28,37.07L41.28,46.367L41.338,46.367Z" style="fill:rgb(101,61,225);fill-rule:nonzero;"/>
            <path d="M41.046,45.373L37.538,45.373L37.538,37.889C37.538,33.62 39.818,29.703 43.502,27.598L50.869,23.33L52.623,26.37L45.256,30.638C42.683,32.158 41.046,34.907 41.046,37.947L41.046,45.373Z" style="fill:rgb(101,61,225);fill-rule:nonzero;"/>
            <path d="M64.2,31.866C61.744,31.866 59.23,31.223 57.067,29.937C52.74,27.422 50.05,22.745 50.05,17.775C50.05,12.746 52.74,8.069 57.125,5.555L63.323,1.988L65.077,5.029L58.879,8.595C55.605,10.466 53.559,13.974 53.559,17.775C53.559,21.517 55.547,25.025 58.821,26.896C62.154,28.826 66.247,28.884 69.579,26.955L75.719,23.388L77.473,26.429L71.333,29.995C69.112,31.282 66.656,31.866 64.2,31.866Z" style="fill:rgb(128,117,240);fill-rule:nonzero;"/>
            <path d="M87.997,62.212L81.8,58.646C77.473,56.132 74.783,51.396 74.783,46.367L74.783,46.191C74.783,41.221 77.473,36.602 81.8,34.088L81.858,34.03C85.074,32.158 87.12,28.65 87.12,24.908C87.12,21.108 85.132,17.6 81.858,15.729C78.584,13.857 74.549,13.799 71.275,15.729L65.077,19.295L63.323,16.255L69.521,12.688C73.906,10.174 79.285,10.174 83.671,12.688C87.997,15.202 90.687,19.88 90.687,24.908C90.687,29.937 87.997,34.556 83.671,37.07L83.612,37.129C80.396,39 78.35,42.508 78.35,46.25L78.35,46.425C78.35,50.226 80.338,53.734 83.612,55.605L89.81,59.172L87.997,62.212Z" style="fill:rgb(101,61,225);fill-rule:nonzero;"/>
            <path d="M76.596,96.242C74.14,96.242 71.684,95.599 69.462,94.312L63.265,90.687L65.019,87.647L71.217,91.272C74.491,93.202 78.584,93.202 81.858,91.272C85.074,89.401 87.12,85.893 87.12,82.151L87.12,81.975C87.12,78.233 85.132,74.784 81.917,72.854L75.719,69.229L77.473,66.188L83.671,69.814C87.939,72.328 90.629,76.947 90.629,81.917L90.629,82.092C90.629,87.062 87.939,91.74 83.612,94.254C81.507,95.599 79.052,96.242 76.596,96.242Z" style="fill:rgb(101,61,225);fill-rule:nonzero;"/>
            <path d="M63.265,104.954L57.067,101.387C52.74,98.873 50.05,94.196 50.05,89.167C50.05,84.139 52.799,79.403 57.184,76.947C61.569,74.433 66.948,74.491 71.275,77.005L77.473,80.572L75.719,83.612L69.462,80.046C66.188,78.175 62.154,78.175 58.938,79.987C55.605,81.858 53.559,85.425 53.559,89.167C53.559,92.909 55.605,96.476 58.821,98.347L65.019,101.914L63.265,104.954Z" style="fill:rgb(101,61,225);fill-rule:nonzero;"/>
            <path d="M88.933,74.784C86.477,74.784 84.021,74.14 81.8,72.854L76.479,69.755L78.233,66.715L83.554,69.814C86.828,71.743 90.921,71.743 94.195,69.814C97.47,67.943 99.458,64.434 99.458,60.634C99.458,56.833 97.411,53.325 94.195,51.396L87.997,47.829L89.752,44.788L95.949,48.355C100.276,50.869 102.966,55.547 102.966,60.575C102.966,65.662 100.276,70.34 95.949,72.796C93.786,74.14 91.389,74.784 88.933,74.784Z" style="fill:rgb(101,61,225);fill-rule:nonzero;"/>
            <path d="M77.414,40.695L75.66,37.655L81.741,34.088C86.126,31.515 91.623,31.515 96.008,34.088L100.335,36.427L98.639,39.526L94.254,37.129C90.921,35.199 86.77,35.199 83.495,37.129L77.414,40.695Z" style="fill:rgb(101,61,225);fill-rule:nonzero;"/>
            <path d="M65.954,46.367L62.388,46.367L62.388,37.07C62.388,33.386 64.376,29.995 67.533,28.124L74.725,23.914L76.479,26.955L69.346,31.106C67.241,32.334 65.954,34.614 65.954,37.012L65.954,46.367Z" style="fill:rgb(101,61,225);fill-rule:nonzero;"/>
            <path d="M65.954,45.373L62.446,45.373L62.446,37.889C62.446,34.907 60.809,32.1 58.236,30.58L50.869,26.312L52.623,23.271L59.99,27.539C63.674,29.644 65.954,33.62 65.954,37.83L65.954,45.373Z" style="fill:rgb(101,61,225);fill-rule:nonzero;"/>
            <path d="M28.183,34.322C26.896,33.971 25.551,34.147 24.382,34.848C23.213,35.491 22.394,36.602 22.043,37.889C21.692,39.175 21.868,40.52 22.569,41.689C23.213,42.859 24.324,43.677 25.61,44.028C26.019,44.145 26.487,44.203 26.896,44.203C27.773,44.203 28.65,43.969 29.41,43.502C30.58,42.859 31.398,41.748 31.749,40.461C32.1,39.175 31.925,37.83 31.223,36.661C30.58,35.491 29.469,34.673 28.183,34.322Z" style="fill:rgb(253,122,216);fill-rule:nonzero;"/>
            <path d="M28.183,48.647C26.896,48.296 25.551,48.472 24.382,49.173C23.213,49.816 22.394,50.928 22.043,52.214C21.692,53.5 21.868,54.845 22.569,56.015C23.213,57.184 24.324,58.003 25.61,58.353C26.019,58.47 26.487,58.529 26.896,58.529C27.773,58.529 28.65,58.295 29.41,57.827C30.58,57.184 31.398,56.073 31.749,54.787C32.1,53.5 31.925,52.156 31.223,50.986C30.58,49.816 29.469,48.939 28.183,48.647Z" style="fill:rgb(253,122,216);fill-rule:nonzero;"/>
            <path d="M28.183,62.914C26.896,62.563 25.551,62.739 24.382,63.44C23.213,64.084 22.394,65.194 22.043,66.481C21.692,67.767 21.868,69.112 22.569,70.281C23.213,71.451 24.324,72.269 25.61,72.62C26.019,72.737 26.487,72.796 26.896,72.796C27.773,72.796 28.65,72.562 29.41,72.094C31.808,70.691 32.626,67.65 31.223,65.194C30.58,64.142 29.469,63.265 28.183,62.914Z" style="fill:rgb(253,122,216);fill-rule:nonzero;"/>
            <path d="M37.947,36.836C38.356,36.953 38.824,37.012 39.233,37.012C40.11,37.012 40.987,36.778 41.748,36.31C44.145,34.907 44.963,31.866 43.619,29.41C42.975,28.241 41.865,27.422 40.578,27.072C39.292,26.721 37.947,26.896 36.778,27.598C35.608,28.241 34.79,29.352 34.439,30.638C34.088,31.925 34.263,33.269 34.965,34.439C35.608,35.667 36.661,36.485 37.947,36.836Z" style="fill:rgb(253,122,216);fill-rule:nonzero;"/>
            <path d="M36.778,70.574C35.608,71.217 34.79,72.328 34.439,73.614C34.088,74.9 34.263,76.245 34.965,77.415C35.608,78.584 36.719,79.403 38.006,79.753C38.415,79.87 38.883,79.929 39.292,79.929C40.169,79.929 41.046,79.695 41.806,79.227C42.975,78.584 43.794,77.473 44.145,76.187C44.496,74.9 44.32,73.556 43.619,72.386C42.215,70.047 39.175,69.229 36.778,70.574Z" style="fill:rgb(253,122,216);fill-rule:nonzero;"/>
            <path d="M40.227,42.917C39.292,42.683 38.356,42.8 37.538,43.268C36.719,43.736 36.135,44.496 35.901,45.431C35.667,46.367 35.784,47.302 36.251,48.121C36.895,49.29 38.123,49.875 39.35,49.875C39.935,49.875 40.578,49.7 41.104,49.407C41.923,48.939 42.508,48.179 42.742,47.244C42.975,46.308 42.859,45.373 42.391,44.554C41.923,43.736 41.163,43.151 40.227,42.917Z" style="fill:rgb(255,173,218);fill-rule:nonzero;"/>
            <path d="M74.082,43.502C74.842,43.969 75.719,44.203 76.596,44.203C77.064,44.203 77.473,44.145 77.882,44.028C79.168,43.677 80.279,42.859 80.923,41.689C81.566,40.52 81.8,39.175 81.449,37.889C81.098,36.602 80.279,35.491 79.11,34.848C77.941,34.205 76.596,33.971 75.309,34.322C74.023,34.673 72.912,35.491 72.269,36.661C71.626,37.83 71.392,39.175 71.743,40.461C72.094,41.748 72.912,42.859 74.082,43.502Z" style="fill:rgb(253,122,216);fill-rule:nonzero;"/>
            <path d="M79.11,49.115C77.941,48.472 76.596,48.238 75.309,48.589C74.023,48.939 72.912,49.758 72.269,50.928C71.626,52.097 71.392,53.442 71.743,54.728C72.094,56.015 72.912,57.126 74.082,57.769C74.842,58.237 75.719,58.47 76.596,58.47C77.064,58.47 77.473,58.412 77.882,58.295C79.168,57.944 80.279,57.126 80.923,55.956C81.566,54.787 81.8,53.442 81.449,52.156C81.098,50.869 80.279,49.816 79.11,49.115Z" style="fill:rgb(253,122,216);fill-rule:nonzero;"/>
            <path d="M79.11,63.44C77.941,62.797 76.596,62.563 75.309,62.914C74.023,63.265 72.912,64.084 72.269,65.253C70.866,67.65 71.684,70.749 74.082,72.152C74.842,72.62 75.719,72.854 76.596,72.854C77.005,72.854 77.473,72.796 77.882,72.679C79.168,72.328 80.279,71.509 80.923,70.34C81.566,69.17 81.8,67.826 81.449,66.539C81.098,65.194 80.279,64.084 79.11,63.44Z" style="fill:rgb(253,122,216);fill-rule:nonzero;"/>
            <path d="M49.29,29.177C50.05,29.644 50.927,29.878 51.805,29.878C52.272,29.878 52.682,29.82 53.091,29.703C54.377,29.352 55.488,28.533 56.131,27.364C56.774,26.195 57.008,24.85 56.658,23.563C56.307,22.277 55.488,21.166 54.319,20.523C53.149,19.88 51.805,19.646 50.518,19.997C49.232,20.348 48.121,21.166 47.478,22.336C46.074,24.733 46.893,27.832 49.29,29.177Z" style="fill:rgb(253,122,216);fill-rule:nonzero;"/>
            <path d="M61.686,36.368C62.446,36.836 63.323,37.07 64.2,37.07C64.609,37.07 65.077,37.012 65.486,36.895C66.773,36.544 67.884,35.725 68.527,34.556C69.17,33.386 69.404,32.042 69.053,30.755C68.702,29.469 67.884,28.358 66.714,27.715C65.545,27.072 64.2,26.838 62.914,27.189C61.627,27.539 60.517,28.358 59.873,29.527C58.47,31.866 59.289,34.965 61.686,36.368Z" style="fill:rgb(253,122,216);fill-rule:nonzero;"/>
            <path d="M66.714,70.574C64.317,69.17 61.218,69.989 59.815,72.386C59.172,73.556 58.938,74.9 59.289,76.187C59.64,77.473 60.458,78.584 61.627,79.227C62.388,79.695 63.265,79.929 64.142,79.929C64.609,79.929 65.019,79.87 65.428,79.753C66.714,79.403 67.825,78.584 68.468,77.415C69.112,76.245 69.346,74.9 68.995,73.614C68.702,72.328 67.884,71.275 66.714,70.574Z" style="fill:rgb(253,122,216);fill-rule:nonzero;"/>
            <path d="M65.954,43.268C65.136,42.8 64.2,42.683 63.265,42.917C62.329,43.151 61.569,43.736 61.101,44.554C60.633,45.373 60.517,46.308 60.75,47.244C60.984,48.179 61.569,48.939 62.388,49.407C62.972,49.758 63.557,49.875 64.142,49.875C65.37,49.875 66.597,49.232 67.241,48.121C67.708,47.302 67.825,46.367 67.591,45.431C67.358,44.496 66.773,43.736 65.954,43.268Z" style="fill:rgb(255,173,218);fill-rule:nonzero;"/>
            <path d="M60.4,62.797C61.16,64.142 62.563,64.961 64.142,64.961C64.902,64.961 65.603,64.785 66.305,64.376C68.352,63.206 69.053,60.575 67.884,58.529C67.299,57.535 66.364,56.833 65.253,56.541C64.142,56.249 62.972,56.424 61.978,56.95C61.861,57.009 61.744,57.067 61.627,57.184L59.23,55.781L59.172,55.722C55.664,53.734 53.5,49.992 53.442,45.957L53.442,43.092C53.559,43.034 53.676,42.975 53.793,42.917C55.839,41.748 56.541,39.116 55.371,37.07C54.786,36.076 53.851,35.374 52.74,35.082C51.629,34.79 50.46,34.965 49.466,35.491C47.419,36.661 46.718,39.292 47.887,41.338C48.355,42.157 49.056,42.742 49.875,43.092L49.875,45.782C49.933,49.875 47.712,53.734 44.145,55.781L41.748,57.184C41.338,56.833 40.812,56.599 40.286,56.482C39.175,56.19 38.006,56.365 37.012,56.892C34.965,58.061 34.263,60.692 35.433,62.739C36.193,64.084 37.596,64.902 39.175,64.902C39.935,64.902 40.637,64.727 41.338,64.317C42.8,63.44 43.619,61.862 43.443,60.224L46.016,58.763C49.524,56.716 53.909,56.716 57.418,58.763L59.815,60.108C59.756,61.043 59.932,61.979 60.4,62.797Z" style="fill:rgb(255,173,218);fill-rule:nonzero;"/>
            <rect x="49.933" y="67.709" width="3.509" height="14.383" style="fill:rgb(101,61,225);fill-rule:nonzero;"/>
            <path d="M37.129,21.459C37.772,21.809 38.532,22.043 39.292,22.043C40.812,22.043 42.274,21.225 43.034,19.88C43.619,18.886 43.736,17.716 43.443,16.606C43.151,15.495 42.449,14.559 41.455,13.974C40.461,13.39 39.292,13.273 38.181,13.565C37.07,13.857 36.135,14.559 35.55,15.553C34.965,16.547 34.848,17.716 35.141,18.827C35.433,19.997 36.135,20.874 37.129,21.459Z" style="fill:rgb(156,171,255);fill-rule:nonzero;"/>
            <path d="M24.791,28.592C25.435,28.943 26.195,29.177 26.955,29.177C28.475,29.177 29.937,28.358 30.697,27.013C31.866,24.967 31.165,22.336 29.118,21.166C28.124,20.581 26.955,20.465 25.844,20.757C24.733,21.049 23.797,21.751 23.213,22.745C22.043,24.791 22.745,27.422 24.791,28.592Z" style="fill:rgb(156,171,255);fill-rule:nonzero;"/>
            <path d="M17.424,28.241C16.313,27.598 15.085,27.422 13.857,27.773C12.63,28.124 11.636,28.884 10.992,29.995C10.349,31.106 10.174,32.334 10.525,33.562C10.875,34.79 11.636,35.784 12.688,36.427C13.39,36.836 14.208,37.07 15.027,37.07C16.722,37.07 18.301,36.193 19.12,34.731C19.763,33.62 19.938,32.392 19.587,31.165C19.295,29.878 18.535,28.884 17.424,28.241Z" style="fill:rgb(156,171,255);fill-rule:nonzero;"/>
            <path d="M40.403,85.016C39.292,84.723 38.123,84.899 37.129,85.425C36.135,86.01 35.433,86.945 35.141,88.056C34.848,89.167 35.024,90.337 35.55,91.33C36.135,92.324 37.07,93.026 38.181,93.318C38.532,93.435 38.941,93.494 39.292,93.494C40.052,93.494 40.754,93.318 41.455,92.909C42.449,92.324 43.151,91.389 43.443,90.278C43.736,89.167 43.56,87.998 43.034,87.004C42.449,86.01 41.514,85.308 40.403,85.016Z" style="fill:rgb(156,171,255);fill-rule:nonzero;"/>
            <path d="M24.791,78.292C23.797,78.876 23.096,79.812 22.803,80.923C22.511,82.034 22.686,83.203 23.213,84.197C23.797,85.191 24.733,85.893 25.844,86.185C26.195,86.302 26.604,86.361 26.955,86.361C27.715,86.361 28.416,86.185 29.118,85.776C31.165,84.606 31.866,81.975 30.697,79.929C29.527,77.882 26.838,77.122 24.791,78.292Z" style="fill:rgb(156,171,255);fill-rule:nonzero;"/>
            <path d="M15.787,70.34C14.559,69.989 13.273,70.164 12.22,70.808C11.109,71.451 10.349,72.445 9.998,73.673C9.648,74.9 9.823,76.187 10.466,77.239C11.109,78.35 12.103,79.11 13.331,79.461C13.741,79.578 14.15,79.637 14.559,79.637C15.378,79.637 16.196,79.403 16.898,78.993C18.009,78.35 18.769,77.356 19.12,76.128C19.471,74.9 19.295,73.614 18.652,72.562C18.009,71.451 17.015,70.632 15.787,70.34Z" style="fill:rgb(156,171,255);fill-rule:nonzero;"/>
            <path d="M12.396,56.892C10.349,58.061 9.648,60.692 10.817,62.739C11.402,63.733 12.337,64.434 13.448,64.727C13.799,64.844 14.208,64.902 14.559,64.902C15.319,64.902 16.021,64.727 16.722,64.317C17.716,63.733 18.418,62.797 18.71,61.686C19.003,60.575 18.827,59.406 18.301,58.412C17.073,56.424 14.442,55.722 12.396,56.892Z" style="fill:rgb(156,171,255);fill-rule:nonzero;"/>
            <path d="M15.67,42.157C14.559,41.865 13.39,42.04 12.396,42.566C11.402,43.151 10.7,44.086 10.408,45.197C10.115,46.308 10.291,47.478 10.817,48.472C11.402,49.466 12.337,50.167 13.448,50.46C13.799,50.577 14.208,50.635 14.559,50.635C15.319,50.635 16.021,50.46 16.722,50.05C17.716,49.466 18.418,48.53 18.71,47.419C19.003,46.308 18.827,45.139 18.301,44.145C17.716,43.209 16.781,42.508 15.67,42.157Z" style="fill:rgb(156,171,255);fill-rule:nonzero;"/>
            <path d="M52.915,14.735C52.565,14.851 52.155,14.91 51.805,14.91C51.044,14.91 50.343,14.735 49.641,14.325C47.595,13.156 46.893,10.525 48.062,8.478C48.647,7.484 49.583,6.783 50.694,6.49C51.805,6.198 52.974,6.373 53.968,6.9C54.962,7.426 55.664,8.42 55.956,9.531C56.248,10.642 56.073,11.811 55.547,12.805C54.962,13.741 54.026,14.442 52.915,14.735Z" style="fill:rgb(156,171,255);fill-rule:nonzero;"/>
            <path d="M66.305,21.459C65.662,21.809 64.902,22.043 64.142,22.043C62.621,22.043 61.16,21.225 60.4,19.88C59.815,18.886 59.698,17.716 59.99,16.606C60.283,15.495 60.984,14.559 61.978,13.974C62.972,13.39 64.142,13.273 65.253,13.565C66.364,13.857 67.299,14.559 67.884,15.553C68.468,16.547 68.585,17.716 68.293,18.827C68.059,19.997 67.299,20.874 66.305,21.459Z" style="fill:rgb(156,171,255);fill-rule:nonzero;"/>
            <path d="M78.701,28.592C78.058,28.943 77.297,29.177 76.537,29.177C75.017,29.177 73.555,28.358 72.795,27.013C71.626,24.967 72.327,22.336 74.374,21.166C75.368,20.581 76.537,20.465 77.648,20.757C78.759,21.049 79.695,21.751 80.279,22.745C81.449,24.791 80.747,27.422 78.701,28.592Z" style="fill:rgb(156,171,255);fill-rule:nonzero;"/>
            <path d="M86.068,28.241C87.179,27.598 88.407,27.422 89.635,27.773C90.862,28.124 91.856,28.884 92.5,29.995C93.143,31.106 93.318,32.334 92.967,33.562C92.617,34.79 91.856,35.784 90.804,36.427C90.102,36.836 89.284,37.07 88.465,37.07C86.77,37.07 85.191,36.193 84.372,34.731C83.729,33.62 83.554,32.392 83.905,31.165C84.197,29.878 84.957,28.884 86.068,28.241Z" style="fill:rgb(156,171,255);fill-rule:nonzero;"/>
            <path d="M49.641,92.617C50.635,92.032 51.805,91.915 52.915,92.208C54.026,92.5 54.962,93.202 55.547,94.196C56.716,96.242 56.014,98.873 53.968,100.043C53.325,100.393 52.565,100.627 51.805,100.627C50.284,100.627 48.823,99.809 48.062,98.464C46.893,96.417 47.595,93.786 49.641,92.617Z" style="fill:rgb(156,171,255);fill-rule:nonzero;"/>
            <path d="M63.089,85.016C64.2,84.723 65.37,84.899 66.364,85.425C67.358,86.01 68.059,86.945 68.352,88.056C68.644,89.167 68.468,90.337 67.942,91.33C67.358,92.324 66.422,93.026 65.311,93.318C64.96,93.435 64.551,93.494 64.2,93.494C63.44,93.494 62.738,93.318 62.037,92.909C61.043,92.324 60.341,91.389 60.049,90.278C59.756,89.167 59.932,87.998 60.458,87.004C61.043,86.01 61.978,85.308 63.089,85.016Z" style="fill:rgb(156,171,255);fill-rule:nonzero;"/>
            <path d="M78.701,78.292C79.695,78.876 80.396,79.812 80.689,80.923C80.981,82.034 80.806,83.203 80.279,84.197C79.695,85.191 78.759,85.893 77.648,86.185C77.297,86.302 76.888,86.361 76.537,86.361C75.777,86.361 75.076,86.185 74.374,85.776C72.327,84.606 71.626,81.975 72.795,79.929C73.965,77.882 76.654,77.122 78.701,78.292Z" style="fill:rgb(156,171,255);fill-rule:nonzero;"/>
            <path d="M87.705,70.34C88.933,69.989 90.219,70.164 91.272,70.808C92.383,71.451 93.143,72.445 93.494,73.673C93.844,74.9 93.669,76.187 93.026,77.239C92.383,78.35 91.389,79.11 90.161,79.461C89.752,79.578 89.342,79.637 88.933,79.637C88.114,79.637 87.296,79.403 86.594,78.993C85.483,78.35 84.723,77.356 84.372,76.128C84.021,74.9 84.197,73.614 84.84,72.562C85.483,71.451 86.477,70.632 87.705,70.34Z" style="fill:rgb(156,171,255);fill-rule:nonzero;"/>
            <path d="M91.096,56.892C93.143,58.061 93.844,60.692 92.675,62.739C92.09,63.733 91.155,64.434 90.044,64.727C89.693,64.844 89.284,64.902 88.933,64.902C88.173,64.902 87.471,64.727 86.77,64.317C85.776,63.733 85.074,62.797 84.782,61.686C84.489,60.575 84.665,59.406 85.191,58.412C86.419,56.424 89.05,55.722 91.096,56.892Z" style="fill:rgb(156,171,255);fill-rule:nonzero;"/>
            <path d="M87.822,42.157C88.933,41.865 90.102,42.04 91.096,42.566C92.09,43.151 92.792,44.086 93.084,45.197C93.377,46.308 93.201,47.478 92.675,48.472C92.09,49.466 91.155,50.167 90.044,50.46C89.693,50.577 89.284,50.635 88.933,50.635C88.173,50.635 87.471,50.46 86.77,50.05C85.776,49.466 85.074,48.53 84.782,47.419C84.489,46.308 84.665,45.139 85.191,44.145C85.776,43.209 86.711,42.508 87.822,42.157Z" style="fill:rgb(156,171,255);fill-rule:nonzero;"/>
            <path d="M89.05,21.576C88.524,21.868 87.88,22.043 87.296,22.043C87.003,22.043 86.653,21.985 86.36,21.926C85.425,21.692 84.665,21.108 84.197,20.289C83.729,19.471 83.612,18.535 83.846,17.6C84.08,16.664 84.665,15.904 85.483,15.436C86.302,14.968 87.237,14.851 88.173,15.085C89.108,15.319 89.868,15.904 90.336,16.722C91.33,18.418 90.746,20.581 89.05,21.576Z" style="fill:rgb(128,117,240);fill-rule:nonzero;"/>
            <path d="M78.701,15.612C78.116,15.962 77.531,16.079 76.947,16.079C75.719,16.079 74.491,15.436 73.848,14.325C73.38,13.507 73.263,12.571 73.497,11.636C73.731,10.7 74.315,9.94 75.134,9.472C75.953,9.004 76.888,8.888 77.824,9.121C78.759,9.355 79.519,9.94 79.987,10.759C80.981,12.454 80.396,14.618 78.701,15.612Z" style="fill:rgb(128,117,240);fill-rule:nonzero;"/>
            <path d="M65.954,6.607C65.428,6.9 64.785,7.075 64.2,7.075C63.908,7.075 63.557,7.016 63.265,6.958C62.329,6.724 61.569,6.139 61.101,5.321C60.633,4.502 60.517,3.567 60.75,2.631C60.984,1.696 61.569,0.936 62.388,0.468C63.206,0 64.142,-0.117 65.077,0.117C66.013,0.351 66.773,0.936 67.241,1.754C68.235,3.391 67.65,5.613 65.954,6.607Z" style="fill:rgb(128,117,240);fill-rule:nonzero;"/>
            <path d="M98.581,34.614C99.516,34.38 100.452,34.497 101.27,34.965C102.089,35.433 102.673,36.193 102.907,37.129C103.141,38.064 103.024,39 102.556,39.818C101.913,40.987 100.685,41.572 99.458,41.572C98.873,41.572 98.23,41.397 97.703,41.104C96.885,40.637 96.3,39.877 96.066,38.941C95.832,38.006 95.949,37.07 96.417,36.251C96.885,35.433 97.703,34.848 98.581,34.614Z" style="fill:rgb(128,117,240);fill-rule:nonzero;"/>
            <path d="M99.048,50.752C99.984,50.518 100.919,50.635 101.738,51.103C102.556,51.571 103.141,52.331 103.375,53.267C103.609,54.202 103.492,55.138 103.024,55.956C102.556,56.775 101.796,57.359 100.861,57.593C100.568,57.652 100.218,57.71 99.925,57.71C99.282,57.71 98.697,57.535 98.171,57.243C97.353,56.775 96.768,56.015 96.534,55.079C96.3,54.144 96.417,53.208 96.885,52.39C97.353,51.571 98.113,50.986 99.048,50.752Z" style="fill:rgb(128,117,240);fill-rule:nonzero;"/>
            <path d="M98.581,63.616C99.516,63.382 100.452,63.499 101.27,63.967C102.089,64.434 102.673,65.194 102.907,66.13C103.141,67.065 103.024,68.001 102.556,68.82C102.089,69.638 101.329,70.223 100.393,70.457C100.101,70.515 99.75,70.574 99.458,70.574C98.814,70.574 98.23,70.398 97.703,70.106C96.885,69.638 96.3,68.878 96.066,67.943C95.832,67.007 95.949,66.071 96.417,65.253C96.885,64.434 97.645,63.85 98.581,63.616Z" style="fill:rgb(128,117,240);fill-rule:nonzero;"/>
            <path d="M14.442,21.576C14.968,21.868 15.612,22.043 16.196,22.043C16.489,22.043 16.839,21.985 17.132,21.926C18.067,21.692 18.827,21.108 19.295,20.289C19.763,19.471 19.88,18.535 19.646,17.6C19.412,16.664 18.827,15.904 18.009,15.436C17.19,14.968 16.255,14.851 15.319,15.085C14.384,15.319 13.624,15.904 13.156,16.722C12.162,18.418 12.746,20.581 14.442,21.576Z" style="fill:rgb(128,117,240);fill-rule:nonzero;"/>
            <path d="M24.791,15.612C25.376,15.962 25.961,16.079 26.545,16.079C27.773,16.079 29.001,15.436 29.644,14.325C30.112,13.507 30.229,12.571 29.995,11.636C29.761,10.7 29.177,9.94 28.358,9.472C27.539,9.004 26.604,8.888 25.668,9.121C24.733,9.355 23.973,9.94 23.505,10.759C22.511,12.454 23.096,14.618 24.791,15.612Z" style="fill:rgb(128,117,240);fill-rule:nonzero;"/>
            <path d="M37.538,6.607C38.064,6.9 38.707,7.075 39.292,7.075C39.584,7.075 39.935,7.016 40.227,6.958C41.163,6.724 41.923,6.139 42.391,5.321C42.859,4.502 42.975,3.567 42.742,2.631C42.508,1.696 41.923,0.936 41.104,0.468C40.286,0 39.35,-0.117 38.415,0.117C37.479,0.351 36.719,0.936 36.251,1.754C35.257,3.391 35.842,5.613 37.538,6.607Z" style="fill:rgb(128,117,240);fill-rule:nonzero;"/>
            <path d="M40.227,100.043C39.292,99.809 38.356,99.926 37.538,100.393C35.842,101.387 35.257,103.551 36.251,105.246C36.719,106.065 37.479,106.65 38.415,106.884C38.707,106.942 39.058,107 39.35,107C39.994,107 40.578,106.825 41.104,106.533C41.923,106.065 42.508,105.305 42.742,104.369C42.975,103.434 42.859,102.498 42.391,101.68C41.923,100.861 41.163,100.276 40.227,100.043Z" style="fill:rgb(128,117,240);fill-rule:nonzero;"/>
            <path d="M25.084,91.681C23.388,92.675 22.803,94.839 23.797,96.534C24.265,97.353 25.025,97.938 25.961,98.171C26.253,98.23 26.604,98.288 26.896,98.288C27.539,98.288 28.124,98.113 28.65,97.821C29.469,97.353 30.054,96.593 30.288,95.657C30.521,94.722 30.404,93.786 29.937,92.968C29.001,91.33 26.779,90.746 25.084,91.681Z" style="fill:rgb(128,117,240);fill-rule:nonzero;"/>
            <path d="M17.541,85.367C16.606,85.133 15.67,85.25 14.851,85.717C13.156,86.711 12.571,88.875 13.565,90.57C14.033,91.389 14.793,91.974 15.729,92.208C16.021,92.266 16.372,92.324 16.664,92.324C17.307,92.324 17.892,92.149 18.418,91.857C19.237,91.389 19.821,90.629 20.055,89.693C20.289,88.758 20.172,87.822 19.704,87.004C19.237,86.185 18.477,85.6 17.541,85.367Z" style="fill:rgb(128,117,240);fill-rule:nonzero;"/>
            <path d="M4.853,34.614C3.918,34.38 2.982,34.497 2.163,34.965C1.345,35.433 0.76,36.193 0.526,37.129C0.292,38.064 0.409,39 0.877,39.818C1.52,40.987 2.748,41.572 3.976,41.572C4.561,41.572 5.204,41.397 5.73,41.104C6.549,40.637 7.133,39.877 7.367,38.941C7.601,38.006 7.484,37.07 7.016,36.251C6.549,35.433 5.789,34.848 4.853,34.614Z" style="fill:rgb(128,117,240);fill-rule:nonzero;"/>
            <path d="M4.444,50.752C3.508,50.518 2.573,50.635 1.754,51.103C0.936,51.571 0.351,52.331 0.117,53.267C-0.117,54.202 0,55.138 0.468,55.956C0.936,56.775 1.696,57.359 2.631,57.593C2.924,57.652 3.274,57.71 3.567,57.71C4.21,57.71 4.795,57.535 5.321,57.243C6.139,56.775 6.724,56.015 6.958,55.079C7.192,54.144 7.075,53.208 6.607,52.39C6.139,51.571 5.379,50.986 4.444,50.752Z" style="fill:rgb(128,117,240);fill-rule:nonzero;"/>
            <path d="M4.912,63.616C3.976,63.382 3.041,63.499 2.222,63.967C1.403,64.434 0.819,65.194 0.585,66.13C0.351,67.065 0.468,68.001 0.936,68.82C1.403,69.638 2.163,70.223 3.099,70.457C3.391,70.515 3.742,70.574 4.035,70.574C4.678,70.574 5.262,70.398 5.789,70.106C6.607,69.638 7.192,68.878 7.426,67.943C7.66,67.007 7.543,66.071 7.075,65.253C6.607,64.434 5.847,63.85 4.912,63.616Z" style="fill:rgb(128,117,240);fill-rule:nonzero;"/>
            <path d="M63.265,100.043C64.2,99.809 65.136,99.926 65.954,100.393C67.65,101.387 68.235,103.551 67.241,105.246C66.773,106.065 66.013,106.65 65.077,106.884C64.785,106.942 64.434,107 64.142,107C63.499,107 62.914,106.825 62.388,106.533C61.569,106.065 60.984,105.305 60.75,104.369C60.517,103.434 60.633,102.498 61.101,101.68C61.569,100.861 62.329,100.276 63.265,100.043Z" style="fill:rgb(128,117,240);fill-rule:nonzero;"/>
            <path d="M78.408,91.681C80.104,92.675 80.689,94.839 79.695,96.534C79.227,97.353 78.467,97.938 77.531,98.171C77.239,98.23 76.888,98.288 76.596,98.288C75.953,98.288 75.368,98.113 74.842,97.821C74.023,97.353 73.438,96.593 73.205,95.657C72.971,94.722 73.088,93.786 73.555,92.968C74.491,91.33 76.713,90.746 78.408,91.681Z" style="fill:rgb(128,117,240);fill-rule:nonzero;"/>
            <path d="M85.951,85.367C86.887,85.133 87.822,85.25 88.641,85.717C90.336,86.711 90.921,88.875 89.927,90.57C89.459,91.389 88.699,91.974 87.764,92.208C87.471,92.266 87.12,92.324 86.828,92.324C86.185,92.324 85.6,92.149 85.074,91.857C84.255,91.389 83.671,90.629 83.437,89.693C83.203,88.758 83.32,87.822 83.788,87.004C84.255,86.185 85.015,85.6 85.951,85.367Z" style="fill:rgb(128,117,240);fill-rule:nonzero;"/>
            <path d="M49.875,70.808C50.46,71.158 51.044,71.275 51.629,71.275C52.857,71.275 54.085,70.632 54.728,69.521C55.196,68.703 55.313,67.767 55.079,66.832C54.845,65.896 54.26,65.136 53.442,64.668C52.623,64.2 51.688,64.084 50.752,64.317C49.817,64.551 49.056,65.136 48.589,65.955C48.121,66.773 48.004,67.709 48.238,68.644C48.472,69.58 49.056,70.34 49.875,70.808Z" style="fill:rgb(255,173,218);fill-rule:nonzero;"/>
            <path d="M54.319,77.765C51.921,76.362 48.823,77.181 47.419,79.637C46.016,82.034 46.835,85.133 49.232,86.536C49.992,87.004 50.869,87.238 51.746,87.238C52.214,87.238 52.623,87.179 53.032,87.062C54.319,86.711 55.43,85.893 56.073,84.723C57.535,82.209 56.716,79.11 54.319,77.765Z" style="fill:rgb(253,122,216);fill-rule:nonzero;"/>
        </g>
    </g>
</svg>
